<svg width="89" height="82" viewBox="0 0 89 82" fill="none" xmlns="http://www.w3.org/2000/svg">
<ellipse cx="44.5" cy="41" rx="44.5" ry="41" fill="#6875F5"/>
<path d="M56.272 56.056C57.7653 54.9467 58.896 53.7093 59.664 52.344C60.4747 50.936 60.88 49.528 60.88 48.12C60.88 46.7547 60.4747 45.4533 59.664 44.216C58.8533 42.936 57.6373 41.8053 56.016 40.824C52.7307 38.8613 49.1253 37.88 45.2 37.88C41.872 37.88 38.736 38.584 35.792 39.992C34.768 44.8987 33.3173 52.3013 31.44 62.2V62.328C36.9013 62.1147 41.616 61.6027 45.584 60.792C49.5947 59.9813 53.1573 58.4027 56.272 56.056ZM50.384 21.88C49.872 19.1067 48.1867 17.72 45.328 17.72C43.9627 17.72 42.384 18.04 40.592 18.68C39.7813 22.008 38.6507 27 37.2 33.656C40.4853 32.8453 43.5147 31.48 46.288 29.56C49.104 27.64 50.512 25.4427 50.512 22.968C50.512 22.7547 50.4693 22.392 50.384 21.88ZM58.768 35.768C61.456 36.9627 63.568 38.52 65.104 40.44C66.6827 42.36 67.472 44.472 67.472 46.776C67.472 48.9947 66.7467 51.1707 65.296 53.304C61.8827 58.3813 56.784 61.944 50 63.992C43.2587 66.04 35.8987 67.064 27.92 67.064C25.7867 67.064 23.76 67 21.84 66.872C20.8587 66.8293 20.368 66.5307 20.368 65.976C20.368 65.3787 20.88 64.6747 21.904 63.864C22.9707 63.0533 23.8667 62.6053 24.592 62.52C27.0667 49.2933 29.9253 35.896 33.168 22.328C32.656 22.456 32.1013 22.52 31.504 22.52C30.8213 22.52 30.2453 22.4347 29.776 22.264C29.3493 22.0933 29.136 21.816 29.136 21.432C29.136 20.9627 29.52 20.3867 30.288 19.704C31.312 18.808 32.7413 17.848 34.576 16.824C34.576 16.696 34.6187 16.504 34.704 16.248C34.9173 15.48 35.5573 14.8187 36.624 14.264C37.7333 13.7093 38.8 13.432 39.824 13.432C40.6347 13.432 41.1467 13.6027 41.36 13.944C43.7067 13.304 45.776 12.984 47.568 12.984C52.2187 12.984 55.2267 14.8613 56.592 18.616C56.976 19.64 57.168 20.6427 57.168 21.624C57.168 23.8 56.3573 25.8907 54.736 27.896C53.1573 29.9013 51.0453 31.736 48.4 33.4C52.112 33.528 55.568 34.3173 58.768 35.768Z" fill="#EFE9E9"/>
</svg>
