<svg width="314" height="131" viewBox="0 0 314 131" fill="none" xmlns="http://www.w3.org/2000/svg">
<rect width="314" height="131" fill="#E5E5E5"/>
<ellipse cx="157" cy="72" rx="151" ry="59" fill="url(#paint0_radial)"/>
<path d="M104.666 75.144C104.826 75.144 104.906 75.32 104.906 75.672C104.906 76.024 104.89 76.376 104.858 76.728C104.346 82.808 102.826 87.256 100.298 90.072C99.4659 91 98.1059 91.496 96.2179 91.56C93.9139 90.728 92.7619 88.696 92.7619 85.464C92.7619 84.888 92.8259 84.168 92.9539 83.304C93.0819 82.408 94.1539 76.2 96.1699 64.68C93.3539 70.376 91.5459 77.32 90.7459 85.512C90.6499 86.472 90.5699 87.192 90.5059 87.672C90.3779 88.696 89.9459 89.208 89.2099 89.208C88.2179 89.208 87.1619 88.456 86.0419 86.952C85.6579 86.44 85.4659 85.8 85.4659 85.032C85.4659 84.264 85.4819 83.416 85.5139 82.488C85.5779 81.56 85.6739 80.536 85.8019 79.416C85.9299 78.296 86.0259 77.4 86.0899 76.728C86.1539 76.056 86.2979 75.032 86.5219 73.656C86.7779 72.28 86.9379 71.4 87.0019 71.016C87.0659 70.6 87.2419 69.576 87.5299 67.944C87.8499 66.312 88.0259 65.4 88.0579 65.208C87.5779 65.688 87.1459 66.408 86.7619 67.368C86.4099 68.328 86.1219 69.112 85.8979 69.72C85.6739 70.296 85.4499 71 85.2259 71.832C85.0019 72.664 84.8099 73.384 84.6499 73.992C84.4899 74.6 84.2979 75.336 84.0739 76.2C83.8819 77.064 83.7379 77.72 83.6419 78.168C83.4179 79 83.0499 80.552 82.5379 82.824C82.0259 85.096 81.6899 86.536 81.5299 87.144C81.4019 87.72 81.2899 88.2 81.1939 88.584C81.1299 88.936 81.0659 89.192 81.0019 89.352C80.9699 89.48 80.8899 89.672 80.7619 89.928C80.5059 90.376 80.0899 90.6 79.5139 90.6C78.9699 90.6 78.4899 90.408 78.0739 90.024C77.6899 89.608 77.4339 89.256 77.3059 88.968C77.1779 88.648 77.0019 88.216 76.7779 87.672C76.5859 87.096 76.4899 86.648 76.4899 86.328C76.4899 86.008 76.5859 85.448 76.7779 84.648C76.9699 83.848 77.1939 82.856 77.4499 81.672C77.7379 80.488 77.9139 79.736 77.9779 79.416C78.0739 79.064 78.2339 78.344 78.4579 77.256C78.7139 76.168 78.8899 75.4 78.9859 74.952C79.0819 74.504 79.2259 73.8 79.4179 72.84C79.6099 71.848 79.7539 71.08 79.8499 70.536C79.9459 69.96 80.0739 69.24 80.2339 68.376C80.3939 67.48 80.5219 66.696 80.6179 66.024C80.9379 63.912 81.1299 62.44 81.1939 61.608V61.272C81.1939 60.696 81.0659 60.408 80.8099 60.408C80.5539 60.408 80.1379 60.856 79.5619 61.752C78.9859 62.648 78.5859 63.336 78.3619 63.816C78.1379 64.296 77.9779 64.952 77.8819 65.784C77.4339 70.232 76.2819 73.848 74.4259 76.632C74.2019 76.952 73.8499 77.112 73.3699 77.112C72.8899 77.112 72.3779 76.856 71.8339 76.344C71.3219 75.832 71.0659 75.304 71.0659 74.76C71.0659 71.496 72.1699 67.72 74.3779 63.432C75.2419 61.8 75.9459 59.384 76.4899 56.184C77.3539 57.464 77.8819 58.312 78.0739 58.728C78.2979 59.144 78.5379 59.352 78.7939 59.352C78.9219 59.352 79.2099 59.16 79.6579 58.776C80.1059 58.392 80.7619 58.2 81.6259 58.2C82.5219 58.2 83.2419 58.424 83.7859 58.872C84.3299 59.32 84.6659 59.832 84.7939 60.408C84.9539 60.984 85.0659 61.848 85.1299 63C85.3219 62.84 85.6579 62.536 86.1379 62.088C87.1619 61.192 88.0579 60.744 88.8259 60.744C89.6259 60.744 90.3299 61.176 90.9379 62.04C91.5779 62.872 91.8659 63.736 91.8019 64.632C92.1859 64.184 92.8899 63.08 93.9139 61.32C94.6499 60.168 95.6259 59.592 96.8419 59.592C98.8579 59.592 99.8659 60.504 99.8659 62.328C99.8659 63.16 99.4819 65.464 98.7139 69.24C97.9459 73.016 97.3859 76.136 97.0339 78.6C96.6819 81.032 96.5059 83.336 96.5059 85.512V86.424C97.5619 85.528 98.5859 84.408 99.5779 83.064C100.602 81.688 101.354 80.6 101.834 79.8C102.314 78.968 103.066 77.64 104.09 75.816C104.378 75.368 104.57 75.144 104.666 75.144ZM104.802 71.064C104.802 70.584 105.122 70.376 105.762 70.44C105.954 70.44 106.194 70.44 106.482 70.44C106.77 70.44 107.378 70.296 108.306 70.008C109.234 69.688 109.97 69.528 110.514 69.528C111.058 69.528 111.57 69.752 112.05 70.2C112.562 70.616 113.026 71.16 113.442 71.832C113.858 72.504 114.066 73.208 114.066 73.944C114.066 74.648 113.362 76.552 111.954 79.656C110.578 82.728 109.89 84.376 109.89 84.6C109.89 84.824 110.018 84.936 110.274 84.936C110.786 84.936 111.858 84.008 113.49 82.152C113.842 81.736 114.226 81.192 114.642 80.52C115.09 79.816 115.426 79.288 115.65 78.936C115.874 78.584 116.178 77.976 116.562 77.112C116.978 76.248 117.25 75.688 117.378 75.432C117.986 74.152 118.514 72.936 118.962 71.784C119.218 71.24 119.602 70.968 120.114 70.968C120.626 70.968 121.106 71.272 121.554 71.88C122.002 72.488 122.226 73.096 122.226 73.704C122.226 74.76 121.394 79.208 119.73 87.048C118.066 94.888 117.138 99.24 116.946 100.104C116.786 100.968 116.626 102.92 116.466 105.96C116.466 106.952 116.13 107.448 115.458 107.448C115.234 107.448 115.026 107.4 114.834 107.304C112.498 106.344 111.33 104.296 111.33 101.16V97.944C111.33 97.272 111.538 96.936 111.954 96.936C112.338 96.936 112.738 97.208 113.154 97.752C113.602 98.296 113.842 98.6 113.874 98.664L116.466 85.848C115.026 87.576 113.89 88.744 113.058 89.352C112.226 89.928 111.218 90.216 110.034 90.216C108.882 90.216 107.954 89.672 107.25 88.584C106.546 87.496 106.194 86.264 106.194 84.888C106.194 82.04 107.202 78.68 109.218 74.808C108.322 75.032 107.586 75.144 107.01 75.144C106.466 75.144 106.066 74.856 105.81 74.28C105.682 74.024 105.474 73.48 105.186 72.648C104.93 71.784 104.802 71.256 104.802 71.064ZM134.325 58.296C134.677 58.296 135.173 58.2 135.813 58.008C139.269 56.92 141.957 56.376 143.877 56.376C145.829 56.376 147.589 56.68 149.157 57.288C150.725 57.864 152.069 58.792 153.189 60.072C154.309 61.352 154.869 62.728 154.869 64.2C154.869 65.672 154.565 67 153.957 68.184C153.381 69.336 152.565 70.376 151.509 71.304C149.653 72.872 147.493 74.264 145.029 75.48C147.141 76.6 148.197 78.568 148.197 81.384L148.149 83.448C148.149 85.656 148.725 86.76 149.877 86.76C151.061 86.76 152.277 86.248 153.525 85.224C153.941 84.904 154.197 84.744 154.293 84.744C154.549 84.744 154.677 84.936 154.677 85.32C154.677 86.44 153.973 87.928 152.565 89.784C151.733 90.776 150.789 91.272 149.733 91.272C148.293 91.272 147.093 90.488 146.133 88.92C145.205 87.352 144.741 85.8 144.741 84.264L144.837 81.72C144.837 79.576 144.501 78.216 143.829 77.64C143.477 77.352 143.013 77.064 142.437 76.776L140.901 77.496C140.485 80.6 140.277 83.096 140.277 84.984L140.325 89.16C140.325 90.344 139.989 90.936 139.317 90.936C139.061 90.936 138.677 90.792 138.165 90.504C136.117 89.224 134.741 86.92 134.037 83.592C134.005 83.432 133.989 83.304 133.989 83.208C133.989 82.92 134.213 82.776 134.661 82.776C135.141 82.776 135.541 82.92 135.861 83.208C136.213 83.464 136.469 83.736 136.629 84.024C136.789 84.28 136.917 84.408 137.013 84.408C137.301 84.408 137.445 84.136 137.445 83.592L137.253 81.336C137.349 76.376 137.749 71.24 138.453 65.928C138.677 64.52 138.837 63.624 138.933 63.24C139.029 62.856 139.077 62.584 139.077 62.424C139.077 62.232 139.061 62.088 139.029 61.992C137.781 62.344 136.901 62.776 136.389 63.288C135.909 63.768 135.477 64.008 135.093 64.008C134.741 64.008 134.453 63.976 134.229 63.912C134.037 63.848 133.845 63.72 133.653 63.528C133.493 63.304 133.365 63.144 133.269 63.048C132.629 62.12 132.309 61.304 132.309 60.6C132.309 58.936 132.597 58.104 133.173 58.104L134.325 58.296ZM151.029 63.432C151.029 62.632 150.309 62.056 148.869 61.704C147.461 61.32 146.213 61.128 145.125 61.128C144.069 61.128 143.141 61.192 142.341 61.32C142.245 61.704 142.197 62.808 142.197 64.632C142.197 66.424 142.005 68.936 141.621 72.168C145.461 70.728 148.501 68.136 150.741 64.392C150.933 64.008 151.029 63.688 151.029 63.432ZM170.083 84.264C170.083 89.128 167.619 91.56 162.691 91.56C160.643 91.56 159.139 91.032 158.179 89.976C157.251 88.92 156.435 87.304 155.731 85.128C155.475 84.296 155.347 83.416 155.347 82.488C155.347 81.528 155.763 80.264 156.595 78.696C157.459 77.096 158.403 75.704 159.427 74.52C159.555 72.76 159.955 71.88 160.627 71.88C160.979 71.88 161.219 72.088 161.347 72.504C162.019 71.896 162.835 71.304 163.795 70.728C164.755 70.152 165.619 69.864 166.387 69.864C167.155 69.864 167.939 70.312 168.739 71.208C169.571 72.104 169.987 73.032 169.987 73.992C169.987 74.92 169.331 76.2 168.019 77.832C165.555 80.904 163.619 82.44 162.211 82.44C161.187 82.44 160.387 81.592 159.811 79.896C159.779 79.96 159.619 80.232 159.331 80.712C159.075 81.16 158.883 81.496 158.755 81.72C158.659 81.944 158.515 82.248 158.323 82.632C158.003 83.368 157.843 84.024 157.843 84.6C157.843 85.912 158.499 86.568 159.811 86.568C161.987 86.568 163.827 86.12 165.331 85.224C166.867 84.296 168.387 82.904 169.891 81.048C170.019 82.456 170.083 83.528 170.083 84.264ZM162.259 78.456C162.771 78.456 163.523 77.832 164.515 76.584C165.539 75.336 166.051 74.488 166.051 74.04C166.051 73.56 165.875 73.32 165.523 73.32C165.203 73.32 164.627 73.736 163.795 74.568C162.995 75.4 162.355 76.12 161.875 76.728C161.811 77.112 161.779 77.4 161.779 77.592C161.779 78.168 161.939 78.456 162.259 78.456ZM183.951 82.824C183.951 84.872 183.295 86.856 181.983 88.776C180.671 90.696 179.007 91.656 176.991 91.656C175.391 91.656 174.111 90.696 173.151 88.776C172.223 86.824 171.759 84.776 171.759 82.632C171.759 80.456 172.335 78.088 173.487 75.528C174.671 72.968 176.207 70.92 178.095 69.384C178.511 69 179.039 68.808 179.679 68.808C180.319 68.808 181.071 69.176 181.935 69.912C182.383 70.328 182.607 71.192 182.607 72.504C182.607 73.816 182.223 75.864 181.455 78.648C181.263 79.352 181.007 79.704 180.687 79.704C180.079 79.704 179.615 77.992 179.295 74.568C179.263 74.024 179.231 73.688 179.199 73.56C177.631 75.288 176.399 77.256 175.503 79.464C174.639 81.64 174.207 83.752 174.207 85.8C174.207 86.856 174.559 87.384 175.263 87.384C176.479 87.384 178.399 86.296 181.023 84.12C181.503 83.704 181.855 83.4 182.079 83.208C182.303 82.984 182.639 82.68 183.087 82.296C183.535 81.88 183.791 81.64 183.855 81.576C183.919 81.864 183.951 82.28 183.951 82.824ZM194.192 57.576C194.192 58.632 193.744 60.104 192.848 61.992C191.952 63.848 191.104 65.192 190.304 66.024C190.176 66.216 189.984 66.312 189.728 66.312C188.928 66.312 188.528 65.672 188.528 64.392C188.528 63.112 189.088 61.32 190.208 59.016C190.432 58.536 190.576 58.04 190.64 57.528C190.704 57.016 190.736 56.728 190.736 56.664C190.768 56.568 190.784 56.504 190.784 56.472C190.816 56.408 190.832 56.344 190.832 56.28C190.864 56.184 190.88 56.12 190.88 56.088C190.912 56.024 190.944 55.976 190.976 55.944C191.008 55.88 191.04 55.832 191.072 55.8C191.168 55.736 191.424 55.704 191.84 55.704C192.256 55.704 192.752 55.88 193.328 56.232C193.904 56.584 194.192 57.032 194.192 57.576ZM194.672 78.888C195.024 78.344 195.264 78.072 195.392 78.072C195.552 78.072 195.664 78.472 195.728 79.272C195.824 80.072 195.872 81.144 195.872 82.488C195.872 83.8 195.552 85.224 194.912 86.76C194.304 88.264 193.408 89.48 192.224 90.408C191.552 90.92 190.928 91.176 190.352 91.176C189.808 91.176 189.344 91.064 188.96 90.84C188.608 90.584 188.288 90.184 188 89.64C187.52 88.872 187.04 87.88 186.56 86.664C186.112 85.448 185.888 84.136 185.888 82.728C185.888 81.32 186 79.896 186.224 78.456C186.448 77.016 186.56 76.056 186.56 75.576C186.56 75.064 186.304 74.424 185.792 73.656C185.28 72.856 185.024 72.376 185.024 72.216C185.024 72.056 185.072 71.896 185.168 71.736C185.296 71.544 185.44 71.368 185.6 71.208C185.792 71.016 185.968 70.856 186.128 70.728C186.32 70.6 186.528 70.44 186.752 70.248C187.488 69.64 188.16 69.336 188.768 69.336C189.376 69.336 189.904 69.544 190.352 69.96C190.832 70.376 191.056 71.096 191.024 72.12C191.024 73.144 190.784 75.08 190.304 77.928C189.696 81.576 189.392 83.672 189.392 84.216C189.392 84.76 189.536 85.032 189.824 85.032C190.464 85.032 192.08 82.984 194.672 78.888ZM198.091 78.12C198.091 77.288 197.835 76.6 197.323 76.056C196.843 75.48 196.603 75.112 196.603 74.952C196.603 74.792 196.699 74.664 196.891 74.568C197.115 74.472 197.355 74.408 197.611 74.376C197.867 74.312 198.123 74.12 198.379 73.8C198.635 73.448 198.843 72.728 199.003 71.64C199.163 70.552 199.243 69.784 199.243 69.336C199.243 68.856 199.387 68.616 199.675 68.616C199.963 68.616 200.219 68.712 200.443 68.904C200.667 69.096 200.827 69.288 200.923 69.48C201.051 69.64 201.195 69.896 201.355 70.248C201.515 70.6 201.627 70.824 201.691 70.92C202.747 70.568 203.627 70.392 204.331 70.392C206.155 70.392 207.723 71.288 209.035 73.08C210.379 74.84 211.051 76.648 211.051 78.504C211.051 79.176 210.971 79.944 210.811 80.808C209.819 85.096 208.283 88.04 206.203 89.64C205.499 90.216 204.859 90.504 204.283 90.504C203.707 90.504 203.227 90.28 202.843 89.832C202.459 89.352 202.187 88.744 202.027 88.008C201.739 86.696 201.595 85.176 201.595 83.448C201.595 81.72 201.787 80.856 202.171 80.856C202.235 80.856 202.395 81.272 202.651 82.104C202.939 82.936 203.371 83.352 203.947 83.352C204.523 83.352 204.955 83.064 205.243 82.488C205.755 81.592 206.251 80.472 206.731 79.128C207.211 77.752 207.451 76.696 207.451 75.96C207.451 75.192 207.099 74.808 206.395 74.808C205.979 74.808 205.515 74.92 205.003 75.144C203.019 75.944 201.707 77.752 201.067 80.568C199.947 85.56 199.387 89.912 199.387 93.624C199.387 95.384 199.483 96.84 199.675 97.992L199.819 99.096C199.819 99.48 199.659 99.848 199.339 100.2C199.019 100.552 198.667 100.728 198.283 100.728C197.259 100.728 196.747 98.328 196.747 93.528C196.747 90.52 197.179 85.656 198.043 78.936L198.091 78.12ZM226.989 84.264C226.989 89.128 224.525 91.56 219.597 91.56C217.549 91.56 216.045 91.032 215.085 89.976C214.157 88.92 213.341 87.304 212.637 85.128C212.381 84.296 212.253 83.416 212.253 82.488C212.253 81.528 212.669 80.264 213.501 78.696C214.365 77.096 215.309 75.704 216.333 74.52C216.461 72.76 216.861 71.88 217.533 71.88C217.885 71.88 218.125 72.088 218.253 72.504C218.925 71.896 219.741 71.304 220.701 70.728C221.661 70.152 222.525 69.864 223.293 69.864C224.061 69.864 224.845 70.312 225.645 71.208C226.477 72.104 226.893 73.032 226.893 73.992C226.893 74.92 226.237 76.2 224.925 77.832C222.461 80.904 220.525 82.44 219.117 82.44C218.093 82.44 217.293 81.592 216.717 79.896C216.685 79.96 216.525 80.232 216.237 80.712C215.981 81.16 215.789 81.496 215.661 81.72C215.565 81.944 215.421 82.248 215.229 82.632C214.909 83.368 214.749 84.024 214.749 84.6C214.749 85.912 215.405 86.568 216.717 86.568C218.893 86.568 220.733 86.12 222.237 85.224C223.773 84.296 225.293 82.904 226.797 81.048C226.925 82.456 226.989 83.528 226.989 84.264ZM219.165 78.456C219.677 78.456 220.429 77.832 221.421 76.584C222.445 75.336 222.957 74.488 222.957 74.04C222.957 73.56 222.781 73.32 222.429 73.32C222.109 73.32 221.533 73.736 220.701 74.568C219.901 75.4 219.261 76.12 218.781 76.728C218.717 77.112 218.685 77.4 218.685 77.592C218.685 78.168 218.845 78.456 219.165 78.456ZM236.729 69.336C237.209 69.112 237.865 69 238.697 69C239.529 69 240.521 69.336 241.673 70.008C242.825 70.648 243.401 71.416 243.401 72.312C243.401 73.176 243.049 73.96 242.345 74.664C241.673 75.368 240.905 75.72 240.041 75.72C238.729 75.72 237.817 75.112 237.305 73.896C237.241 73.704 237.129 73.608 236.969 73.608C236.841 73.608 236.313 73.8 235.385 74.184C234.489 74.568 233.881 74.84 233.561 75C233.241 75.16 233.081 75.32 233.081 75.48C233.081 75.608 233.305 75.784 233.753 76.008C239.449 77.544 242.297 79.896 242.297 83.064C242.297 84.184 241.849 85.352 240.953 86.568C240.089 87.752 238.857 88.728 237.257 89.496C235.657 90.264 234.121 90.648 232.649 90.648C231.177 90.648 230.137 90.248 229.529 89.448C228.953 88.648 228.665 87.496 228.665 85.992C228.665 84.488 229.193 83.368 230.249 82.632C231.657 81.704 232.809 81.24 233.705 81.24C233.929 81.24 234.041 81.304 234.041 81.432C234.041 81.528 233.785 81.72 233.273 82.008C232.793 82.296 232.265 82.712 231.689 83.256C231.145 83.8 230.873 84.248 230.873 84.6C230.873 84.92 231.257 85.08 232.025 85.08C234.073 85.08 236.089 84.504 238.073 83.352C238.521 83.128 238.745 82.872 238.745 82.584C238.745 82.264 238.409 81.944 237.737 81.624C237.065 81.304 235.929 80.84 234.329 80.232C232.761 79.624 231.513 79.112 230.585 78.696C229.689 78.248 229.241 77.528 229.241 76.536C229.241 76.248 229.305 75.848 229.433 75.336C229.593 74.792 229.689 74.424 229.721 74.232C229.881 73.112 230.377 72.344 231.209 71.928C232.073 71.512 233.913 70.648 236.729 69.336Z" fill="url(#paint1_linear)"/>
<defs>
<radialGradient id="paint0_radial" cx="0" cy="0" r="1" gradientUnits="userSpaceOnUse" gradientTransform="translate(157 72) rotate(90) scale(59 151)">
<stop stop-color="#4B9DE9"/>
<stop offset="1" stop-color="#B9B9E6" stop-opacity="0.25"/>
</radialGradient>
<linearGradient id="paint1_linear" x1="248" y1="-4.5558e-06" x2="194" y2="-80" gradientUnits="userSpaceOnUse">
<stop stop-color="#2E2626"/>
<stop offset="1" stop-color="#151414" stop-opacity="0"/>
</linearGradient>
</defs>
</svg>
